<svg width="21" height="21" xmlns="http://www.w3.org/2000/svg">

 <g>
  <title>background</title>
  <rect fill="none" id="canvas_background" height="23" width="23" y="-1" x="-1"/>
 </g>
 <g>
  <title>Layer 1</title>
  <g id="svg_1">
   <path fill="#00e8d4" id="svg_2" d="m20.181614,4.550209c-0.120365,-0.169008 -0.312546,-0.269031 -0.516785,-0.269031l-14.391005,0c-0.027882,0 -0.055718,0.001737 -0.08253,0.005439l-0.59226,-1.748597c-0.061387,-0.180847 -0.19656,-0.324999 -0.370275,-0.395044l-2.984859,-1.200941c-0.328963,-0.131911 -0.700175,0.03358 -0.829372,0.370096c-0.12897,0.336696 0.032568,0.717124 0.361354,0.849443l2.710942,1.090735l3.31824,9.79612c-0.146457,0.052274 -0.270568,0.167364 -0.32709,0.328381l-0.959411,2.72954c-0.0588,0.167364 -0.034575,0.353331 0.065488,0.498766c0.099931,0.145437 0.262449,0.232019 0.435986,0.232019l0.492688,0c-0.305319,0.34798 -0.492688,0.806263 -0.492688,1.310192c0,1.083696 0.860913,1.965263 1.918826,1.965263s1.918827,-0.881567 1.918827,-1.965263c0,-0.503929 -0.187372,-0.962212 -0.492692,-1.310192l4.183479,0c-0.305455,0.34798 -0.492867,0.806263 -0.492867,1.310192c0,1.083696 0.86073,1.965263 1.91887,1.965263c1.058091,0 1.91882,-0.881567 1.91882,-1.965263c0,-0.503929 -0.187363,-0.962212 -0.492645,-1.310192l0.59927,0c0.294388,0 0.532974,-0.244404 0.532974,-0.545919c0,-0.301512 -0.238625,-0.545868 -0.532974,-0.545868l-10.221494,0l0.594179,-1.690392c0.076732,0.033084 0.159622,0.052637 0.246388,0.052637l9.380789,0c0.278111,0 0.524231,-0.183997 0.608952,-0.455037l2.665035,-8.516223c0.0625,-0.199395 0.028202,-0.417109 -0.092163,-0.586123zm-12.242749,14.470545c-0.470339,0 -0.85279,-0.391712 -0.85279,-0.873428s0.382452,-0.873478 0.85279,-0.873478s0.852791,0.391758 0.852791,0.873478s-0.382454,0.873428 -0.852791,0.873428zm7.035574,0c-0.470339,0 -0.852835,-0.391712 -0.852835,-0.873428s0.382496,-0.873478 0.852835,-0.873478c0.470291,0 0.852789,0.391758 0.852789,0.873478s-0.382498,0.873428 -0.852789,0.873428zm3.352679,-11.955437l-3.263816,0l0,-1.473948l3.725013,0l-0.461197,1.473948zm-0.939831,3.002455l-2.323985,0l0,-1.692307l2.853656,0l-0.529671,1.692307zm-6.552609,0l0,-1.692307l2.949391,0l0,1.692307l-2.949391,0zm2.949391,1.310286l0,1.419342l-2.949391,0l0,-1.419342l2.949391,0zm-7.207814,-3.002592l2.979326,0l0,1.692307l-2.406027,0l-0.573299,-1.692307zm4.258422,-1.310148l0,-1.473948l2.949391,0l0,1.473948l-2.949391,0zm-1.279141,-1.473948l0,1.473948l-3.42321,0l-0.499247,-1.473948l3.922457,0zm-1.962098,5.786688l1.962098,0l0,1.419342l-1.481363,0l-0.480735,-1.419342zm7.469864,1.419392l0,-1.419349l1.914233,0l-0.444107,1.419349l-1.470126,0z"/>
  </g>
  <g id="svg_3"/>
  <g id="svg_4"/>
  <g id="svg_5"/>
  <g id="svg_6"/>
  <g id="svg_7"/>
  <g id="svg_8"/>
  <g id="svg_9"/>
  <g id="svg_10"/>
  <g id="svg_11"/>
  <g id="svg_12"/>
  <g id="svg_13"/>
  <g id="svg_14"/>
  <g id="svg_15"/>
  <g id="svg_16"/>
  <g id="svg_17"/>
 </g>
</svg>