<svg width="20.999999999999996" height="20.999999999999996" xmlns="http://www.w3.org/2000/svg">
 <g>
  <title>background</title>
  <rect x="-1" y="-1" width="23" height="23" id="canvas_background" fill="none"/>
 </g>

 <g>
  <title>Layer 1</title>
  <g id="svg_1">
   <path d="m14.702601,1.070122c-0.97111,0 -1.899308,0.228069 -2.758685,0.677949c-0.584996,0.306175 -1.122401,0.712964 -1.583508,1.195616c-0.46114,-0.482652 -0.998509,-0.889441 -1.583496,-1.195616c-0.85941,-0.44988 -1.787584,-0.677949 -2.758731,-0.677949c-3.34803,0 -6.071887,2.790591 -6.071887,6.220691c0,2.429476 1.252395,5.009768 3.722366,7.669304c2.062297,2.220566 4.587202,4.0716 6.342138,5.233414l0.349609,0.231472l0.349623,-0.231472c1.754934,-1.161772 4.27983,-3.012848 6.342173,-5.233414c2.469973,-2.659536 3.722332,-5.239828 3.722332,-7.669304c0,-3.4301 -2.723871,-6.220691 -6.071935,-6.220691zm1.416244,12.980136c-1.843103,1.98453 -4.088181,3.671626 -5.758436,4.800759c-1.670252,-1.129173 -3.915319,-2.816229 -5.758378,-4.800759c-2.234458,-2.40585 -3.367388,-4.680056 -3.367388,-6.759444c0,-2.702298 2.145912,-4.900782 4.783573,-4.900782c1.518574,0 2.913554,0.714638 3.827163,1.960644l0.515029,0.702405l0.515042,-0.702405c0.913608,-1.246005 2.308589,-1.960644 3.827163,-1.960644c2.637659,0 4.783573,2.198484 4.783573,4.900782c0,2.079389 -1.132965,4.353594 -3.367342,6.759444z" id="svg_2" fill="#00e8d4"/>
  </g>
  <g id="svg_3"/>
  <g id="svg_4"/>
  <g id="svg_5"/>
  <g id="svg_6"/>
  <g id="svg_7"/>
  <g id="svg_8"/>
  <g id="svg_9"/>
  <g id="svg_10"/>
  <g id="svg_11"/>
  <g id="svg_12"/>
  <g id="svg_13"/>
  <g id="svg_14"/>
  <g id="svg_15"/>
  <g id="svg_16"/>
  <g id="svg_17"/>
 </g>
</svg>