<svg width="21" height="21" xmlns="http://www.w3.org/2000/svg">

 <g>
  <title>background</title>
  <rect fill="none" id="canvas_background" height="23" width="23" y="-1" x="-1"/>
 </g>
 <g>
  <title>Layer 1</title>
  <g id="svg_1">
   <path fill="#00e89e" id="svg_2" d="m13.399833,3.201493c-2.78234,-2.935112 -7.310806,-2.935112 -10.093147,0c-2.781737,2.935749 -2.781737,7.712226 0,10.647973c2.477749,2.613159 6.336715,2.893118 9.117246,0.852601c0.058506,0.292048 0.192406,0.570734 0.407731,0.797882l4.051975,4.274461c0.590485,0.621634 1.544672,0.621634 2.132141,0c0.589884,-0.622272 0.589884,-1.628851 0,-2.249214l-4.051973,-4.275731c-0.21412,-0.22524 -0.478904,-0.367129 -0.75575,-0.428847c1.935515,-2.933839 1.670127,-7.004056 -0.808224,-9.619124zm-1.279286,9.298445c-2.077255,2.191313 -5.457922,2.191313 -7.534575,0c-2.07605,-2.191313 -2.07605,-5.756968 0,-7.948281c2.076653,-2.190676 5.457319,-2.190676 7.534575,0c2.077256,2.191313 2.077256,5.756968 0,7.948281z"/>
  </g>
  <g id="svg_3"/>
  <g id="svg_4"/>
  <g id="svg_5"/>
  <g id="svg_6"/>
  <g id="svg_7"/>
  <g id="svg_8"/>
  <g id="svg_9"/>
  <g id="svg_10"/>
  <g id="svg_11"/>
  <g id="svg_12"/>
  <g id="svg_13"/>
  <g id="svg_14"/>
  <g id="svg_15"/>
  <g id="svg_16"/>
  <g id="svg_17"/>
 </g>
</svg>